<svg id="Layer_1" enable-background="new 0 0 256 256" height="512" viewBox="0 0 256 256" width="512" xmlns="http://www.w3.org/2000/svg"><path d="m200.77 231h-161.675c-4.105 0-7.433-3.328-7.433-7.433v-208.134c0-4.105 3.328-7.433 7.433-7.433h161.675c4.105 0 7.433 3.328 7.433 7.433v208.133c.001 4.106-3.327 7.434-7.433 7.434z" fill="#e0ebfc"/><path d="m180.329 58.993h-120.792c-2.566 0-4.646-2.08-4.646-4.646v-18.583c0-2.566 2.08-4.646 4.646-4.646h120.792c2.566 0 4.646 2.08 4.646 4.646v18.583c-.001 2.566-2.081 4.646-4.646 4.646z" fill="#f9a7a7"/><path d="m119.56 111.463h-57.236c-4.105 0-7.433-3.328-7.433-7.433v-22.11c0-4.105 3.328-7.433 7.433-7.433h57.236c4.105 0 7.433 3.328 7.433 7.433v22.11c.001 4.105-3.327 7.433-7.433 7.433z" fill="#a4c9ff"/><path d="m200.771 233h-161.676c-5.202 0-9.433-4.231-9.433-9.434v-208.132c0-5.202 4.231-9.434 9.433-9.434h161.675c5.202 0 9.433 4.231 9.433 9.434v208.133c.001 5.202-4.231 9.433-9.432 9.433zm-161.676-223c-2.996 0-5.433 2.438-5.433 5.434v208.133c0 2.996 2.438 5.434 5.433 5.434h161.675c2.996 0 5.433-2.438 5.433-5.434v-208.133c0-2.996-2.438-5.434-5.433-5.434z" fill="#3762cc"/><g fill="#a4c9ff"><path d="m88.911 190.469h-28.516c-3.039 0-5.503-2.464-5.503-5.503v-25.97c0-3.039 2.464-5.503 5.503-5.503h28.517c3.039 0 5.503 2.464 5.503 5.503v25.97c0 3.04-2.464 5.503-5.504 5.503z"/><path d="m180.329 88.993h-40.946c-2.566 0-4.646-2.08-4.646-4.646 0-2.566 2.08-4.646 4.646-4.646h40.946c2.566 0 4.646 2.08 4.646 4.646-.001 2.566-2.081 4.646-4.646 4.646z"/><path d="m180.329 106.247h-40.946c-2.566 0-4.646-2.08-4.646-4.646 0-2.566 2.08-4.646 4.646-4.646h40.946c2.566 0 4.646 2.08 4.646 4.646-.001 2.566-2.081 4.646-4.646 4.646z"/><path d="m180.329 128.792h-120.792c-2.566 0-4.646-2.08-4.646-4.646 0-2.566 2.08-4.646 4.646-4.646h120.792c2.566 0 4.646 2.08 4.646 4.646-.001 2.566-2.081 4.646-4.646 4.646z"/><path d="m180.329 144.82h-120.792c-2.566 0-4.646-2.08-4.646-4.646 0-2.566 2.08-4.646 4.646-4.646h120.792c2.566 0 4.646 2.08 4.646 4.646-.001 2.566-2.081 4.646-4.646 4.646z"/><path d="m180.329 208.434h-120.792c-2.566 0-4.646-2.08-4.646-4.646 0-2.566 2.08-4.646 4.646-4.646h120.792c2.566 0 4.646 2.08 4.646 4.646-.001 2.566-2.081 4.646-4.646 4.646z"/><path d="m134.191 190.469h-28.517c-3.039 0-5.503-2.464-5.503-5.503v-25.97c0-3.039 2.464-5.503 5.503-5.503h28.517c3.039 0 5.503 2.464 5.503 5.503v25.97c.001 3.04-2.463 5.503-5.503 5.503z"/><path d="m179.471 190.469h-28.517c-3.039 0-5.503-2.464-5.503-5.503v-25.97c0-3.039 2.464-5.503 5.503-5.503h28.517c3.039 0 5.503 2.464 5.503 5.503v25.97c0 3.04-2.464 5.503-5.503 5.503z"/></g><path d="m-17.57 108.346h98.895v27.545h-98.895z" fill="#4671c6" transform="matrix(0 1 -1 0 153.996 90.241)"/><path d="m45.649 171.566h-27.544l11.867 18.402c.85 1.317 2.96 1.317 3.81 0z" fill="#f9cfcf"/><path d="m18.105 72.671v-10.469c0-2.688 2.179-4.867 4.867-4.867h17.811c2.688 0 4.867 2.179 4.867 4.867v10.469z" fill="#f9cfcf"/><path d="m33.782 189.968 5.615-8.707h-15.04l5.615 8.707c.85 1.318 2.96 1.318 3.81 0z" fill="#a4c9ff"/><path d="m45.65 173.566h-27.545c-1.104 0-2-.896-2-2v-98.895c0-1.104.896-2 2-2h27.545c1.104 0 2 .896 2 2v98.896c0 1.104-.896 1.999-2 1.999zm-25.545-4h23.545v-94.895h-23.545z" fill="#3762cc"/><path d="m31.877 192.956c-1.477 0-2.817-.712-3.586-1.905l-11.867-18.4c-.397-.615-.426-1.398-.076-2.041.351-.643 1.024-1.043 1.756-1.043h27.545c.732 0 1.406.4 1.756 1.043s.321 1.426-.076 2.041l-11.867 18.401c-.768 1.192-2.108 1.904-3.585 1.904zm-10.103-19.39 9.878 15.317c.023.035.115.072.224.072.11 0 .202-.037.225-.072l9.878-15.317z" fill="#3762cc"/><path d="m45.65 74.671h-27.545c-1.104 0-2-.896-2-2v-10.469c0-3.786 3.081-6.867 6.867-6.867h17.811c3.786 0 6.867 3.081 6.867 6.867v10.469c0 1.104-.896 2-2 2zm-25.545-4h23.545v-8.469c0-1.581-1.286-2.867-2.867-2.867h-17.811c-1.581 0-2.867 1.286-2.867 2.867z" fill="#3762cc"/><circle cx="193.559" cy="200.309" fill="#6bdddd" r="47.691"/><circle cx="193.559" cy="200.309" fill="#4671c6" r="34.974"/><path d="m193.559 250c-27.4 0-49.691-22.291-49.691-49.691s22.291-49.691 49.691-49.691 49.691 22.291 49.691 49.691-22.292 49.691-49.691 49.691zm0-95.383c-25.194 0-45.691 20.497-45.691 45.691s20.497 45.692 45.691 45.692 45.691-20.497 45.691-45.691-20.497-45.692-45.691-45.692z" fill="#3762cc"/><path d="m168.675 192.42c-.567 0-.971.134-1.23.411-.104.11-.316.36-.955 1.251-.437.607-.941 1.161-1.5 1.646-.555.482-1.315.953-2.26 1.397-.71.333-1.202.604-1.508.832-.289.219-.635.641-.635 1.41 0 .516.197.992.572 1.38.381.391.849.597 1.354.597.531 0 1.425-.225 3.642-1.822v10.087c0 .812.206 1.452.613 1.902.416.462.99.706 1.659.706.858 0 2.299-.401 2.299-3.092v-14.196c0-.73-.176-1.326-.523-1.771-.378-.483-.906-.738-1.528-.738z" fill="#ffea92"/><path d="m186.716 194.204c-.582-.591-1.267-1.045-2.035-1.353-.764-.304-1.619-.457-2.541-.457-1.404 0-2.637.349-3.663 1.037-1.025.689-1.815 1.696-2.353 3.003-.298.768-.518 1.682-.654 2.717-.135 1.018-.203 2.179-.203 3.451 0 .996.063 1.933.187 2.782.125.873.325 1.681.601 2.412.543 1.357 1.37 2.439 2.458 3.218 1.096.781 2.35 1.177 3.728 1.177 1.195 0 2.299-.295 3.281-.877.977-.577 1.783-1.409 2.4-2.479.479-.853.81-1.81.985-2.848.17-1.006.256-2.216.256-3.597 0-2.571-.335-4.604-.997-6.041-.393-.844-.88-1.566-1.45-2.145zm-6.577 11.75c-.174-.946-.263-2.194-.263-3.711 0-2.207.201-3.845.599-4.867.334-.863.879-1.266 1.715-1.266.584 0 1.021.175 1.334.534.355.406.618 1.045.779 1.897.174.922.263 2.134.263 3.603 0 1.552-.085 2.817-.251 3.764-.155.878-.417 1.549-.78 1.994-.317.391-.736.573-1.319.573-.556 0-.978-.18-1.29-.551-.362-.424-.626-1.087-.787-1.97z" fill="#ffea92"/><path d="m201.805 194.204c-.582-.591-1.267-1.045-2.035-1.353-.764-.304-1.619-.457-2.541-.457-1.403 0-2.636.349-3.663 1.037-1.026.69-1.815 1.696-2.352 3.002-.297.763-.517 1.677-.655 2.719-.135 1.02-.202 2.181-.202 3.45 0 .993.063 1.93.186 2.782.124.869.325 1.676.601 2.412.543 1.357 1.37 2.439 2.458 3.218 1.096.781 2.351 1.177 3.729 1.177 1.195 0 2.3-.295 3.281-.877.976-.576 1.781-1.408 2.399-2.479.478-.852.81-1.809.986-2.848.169-1.008.255-2.218.255-3.597 0-2.571-.335-4.604-.997-6.041-.393-.844-.88-1.566-1.45-2.145zm-6.577 11.75c-.174-.946-.263-2.194-.263-3.711 0-2.207.201-3.845.599-4.867.334-.863.879-1.266 1.715-1.266.584 0 1.021.175 1.334.534.355.406.618 1.045.779 1.897.174.917.263 2.129.263 3.603 0 1.552-.085 2.817-.251 3.764-.155.878-.417 1.549-.78 1.994-.317.391-.736.573-1.319.573-.556 0-.978-.18-1.29-.551-.361-.423-.625-1.086-.787-1.97z" fill="#ffea92"/><path d="m222.564 193.664c0-.405-.145-.756-.419-1.014-.264-.249-.613-.38-1.012-.38-.542 0-.863.234-1.037.43-.162.183-.341.438-.539.772l-10.381 16.771c-.234.353-.348.668-.348.965 0 .416.186.786.522 1.041.296.226.61.339.934.339.384 0 .94-.17 1.401-.965l10.328-16.649c.392-.625.551-1.005.551-1.31z" fill="#ffea92"/><path d="m212.639 201.716c.794-.878 1.196-2.198 1.196-3.924 0-.847-.091-1.599-.271-2.233-.188-.667-.481-1.243-.871-1.714-.402-.484-.898-.85-1.476-1.084-.557-.227-1.204-.341-1.925-.341-1.006 0-1.856.22-2.527.653-.686.444-1.185 1.097-1.485 1.938-.277.781-.418 1.755-.418 2.893 0 1.088.187 2.03.554 2.8.384.806.934 1.411 1.634 1.799.678.374 1.449.563 2.292.563 1.379 0 2.488-.454 3.297-1.35zm-2.613-6.154c.133.282.291.877.291 2.106 0 1.294-.153 1.93-.281 2.234-.104.249-.263.415-.694.415-.318 0-.453-.1-.526-.175-.144-.146-.252-.4-.314-.736-.081-.431-.122-.999-.122-1.688 0-.664.041-1.217.122-1.644.062-.33.171-.582.316-.728.077-.076.215-.179.524-.179.438.001.588.19.684.395z" fill="#ffea92"/><path d="m226.261 204.518c-.188-.673-.486-1.249-.886-1.712-.403-.466-.896-.821-1.467-1.057-.556-.227-1.202-.341-1.919-.341-1.529 0-2.678.49-3.411 1.459-.693.917-1.045 2.263-1.045 4.001 0 1.096.188 2.04.563 2.806.389.795.939 1.396 1.636 1.785.678.379 1.454.571 2.307.571 1.38 0 2.489-.454 3.297-1.351.794-.878 1.196-2.197 1.196-3.923-.001-.846-.092-1.599-.271-2.238zm-3.538.032c.133.282.291.873.291 2.083 0 1.282-.156 1.918-.287 2.226-.108.254-.267.424-.688.424-.36 0-.563-.122-.7-.421-.136-.296-.299-.913-.299-2.18 0-.677.044-1.225.131-1.632.068-.329.179-.572.327-.721.042-.043.171-.172.541-.172.439 0 .588.19.684.393z" fill="#ffea92"/></svg>