
        <svg xmlns="http://www.w3.org/2000/svg" xmlns:xlink="http://www.w3.org/1999/xlink" version="1.1" width="3162.3017336776097" 
        height="649.4488715020502" viewBox="0 0 3162.3017336776097 649.4488715020502">
			
			<g transform="scale(8.115086683880486) translate(10, 10)">
				<defs id="SvgjsDefs25599"><linearGradient id="SvgjsLinearGradient25606"><stop id="SvgjsStop25607" stop-color="#2d388a" offset="0"></stop><stop id="SvgjsStop25608" stop-color="#00aeef" offset="1"></stop></linearGradient></defs><g id="SvgjsG25600" featureKey="mugSzh-0" transform="matrix(1.3186953084703912,0,0,1.3186953084703912,-6.593476542351956,-29.328923129849173)" fill="url(#SvgjsLinearGradient25606)"><path xmlns="http://www.w3.org/2000/svg" d="M24.152,67.419c0,0,16.858-1.746,24.003-24.345c8.891-28.124,30.73-18.478,30.73-18.478s-31.22,19.741,16.597,42.883  L24.152,67.419z"></path><path xmlns="http://www.w3.org/2000/svg" d="M13.877,67.452c0,0,7.535-0.779,10.728-10.88c3.974-12.569,13.734-8.258,13.734-8.258s-13.953,8.823,7.418,19.166  L13.877,67.452z"></path><path xmlns="http://www.w3.org/2000/svg" d="M5,67.464c0,0,4.196-0.434,5.975-6.06c2.213-7.001,7.649-4.6,7.649-4.6s-7.771,4.914,4.131,10.675L5,67.464z"></path></g><g id="SvgjsG25601" featureKey="PPkF4s-0" transform="matrix(1.3275735024511288,0,0,1.3275735024511288,138.8672415102894,-6.478558843890239)" fill="#d7d7d7"><path d="M3.6 15.04 l6.5 0 l-3.2 -7.76 z M7.64 5.84 l5.96 14.16 l-1.48 0 l-1.54 -3.76 l-7.5 0 l-1.6 3.76 l-1.38 0 l6.18 -14.16 l1.36 0 z M19.814000000000004 8.1 l1.2 0 l0 2.66 l2.64 0 l0 1.08 l-2.64 0 l0 6.04 q0 0.58 0.34 0.93 t0.94 0.35 q0.66 0 1.36 -0.32 l0.1 1.08 q-0.9 0.32 -1.58 0.32 q-1.18 0 -1.77 -0.66 t-0.59 -1.7 l0 -6.04 l-2 0 l0 -1.08 l2 0 l0 -2.66 z M29.828000000000003 4.880000000000001 l1.2 0 l0 15.12 l-1.2 0 l0 -15.12 z M39.04200000000001 17.44 q0 0.76 0.61 1.24 t1.51 0.48 q1.62 0 2.41 -0.85 t0.79 -2.31 l0 -0.64 l-1.44 0 q-1.84 0 -2.86 0.56 t-1.02 1.52 z M41.76200000000001 10.52 q1.86 0 2.76 0.86 t0.92 2.4 l0 2.74 q0 2.24 0.18 3.48 l-1.12 0 q-0.12 -0.62 -0.12 -1.5 l-0.04 0 q-1 1.74 -3.22 1.74 q-1.5 0 -2.38 -0.74 t-0.9 -2 q0 -1.54 1.33 -2.32 t3.71 -0.78 l1.48 0 l0 -0.54 q0 -1.14 -0.7 -1.7 t-1.9 -0.56 q-1.6 0 -2.82 1.04 l-0.7 -0.82 q0.66 -0.64 1.63 -0.97 t1.89 -0.33 z M56.876000000000005 10.52 q1.8 0 2.65 0.97 t0.87 3.05 l0 5.46 l-1.2 0 l0 -5.4 q0 -1.54 -0.57 -2.27 t-1.75 -0.73 q-1.46 0 -2.32 1.01 t-0.88 2.81 l0 4.58 l-1.2 0 l0 -6.74 q-0.02 -0.58 -0.1 -2.5 l1.2 0 q0.04 1.58 0.08 1.62 l0.06 0 q0.4 -0.84 1.27 -1.35 t1.89 -0.51 z M68.11000000000001 8.1 l1.2 0 l0 2.66 l2.64 0 l0 1.08 l-2.64 0 l0 6.04 q0 0.58 0.34 0.93 t0.94 0.35 q0.66 0 1.36 -0.32 l0.1 1.08 q-0.9 0.32 -1.58 0.32 q-1.18 0 -1.77 -0.66 t-0.59 -1.7 l0 -6.04 l-2 0 l0 -1.08 l2 0 l0 -2.66 z M78.12400000000001 10.76 l1.2 0 l0 9.24 l-1.2 0 l0 -9.24 z M78.72400000000002 6.199999999999999 q0.4 0 0.65 0.26 t0.25 0.64 t-0.25 0.64 t-0.65 0.26 q-0.38 0 -0.64 -0.26 t-0.26 -0.64 t0.26 -0.64 t0.64 -0.26 z M90.89800000000001 10.52 q2 0 3.44 1.6 l-0.96 0.72 q-1.16 -1.24 -2.5 -1.24 q-1.56 0 -2.59 1.06 t-1.05 2.72 q0 1.66 1.04 2.71 t2.6 1.07 q1.48 0 2.5 -1.28 l0.92 0.76 q-1.34 1.58 -3.4 1.6 q-2.1 0 -3.46 -1.36 t-1.4 -3.5 q0 -2.06 1.35 -3.44 t3.51 -1.42 z M115.78600000000002 5.48 q3.14 0 4.88 2.22 l-1.08 0.9 q-0.6 -0.9 -1.6 -1.41 t-2.2 -0.51 q-2.64 0 -4.3 1.74 t-1.7 4.5 q0 2.74 1.67 4.47 t4.33 1.77 q1.14 0 2.32 -0.57 t1.86 -1.63 l1.08 0.82 q-1.88 2.58 -5.26 2.58 q-3.28 -0.02 -5.27 -2.12 t-2.05 -5.32 q0 -3.26 2.05 -5.33 t5.27 -2.11 z M127.64000000000001 15.379999999999999 q0 1.66 1.04 2.72 t2.62 1.06 q1.64 0 2.65 -1.08 t1.01 -2.7 q0 -1.6 -1 -2.68 t-2.68 -1.1 q-1.62 0 -2.62 1.08 t-1.02 2.7 z M131.3 10.52 q2.12 0 3.48 1.38 t1.38 3.48 q0 2.14 -1.39 3.49 t-3.47 1.37 q-2.18 -0.02 -3.51 -1.4 t-1.35 -3.46 q0 -2.14 1.37 -3.49 t3.49 -1.37 z M143.454 17.44 q0 0.76 0.61 1.24 t1.51 0.48 q1.62 0 2.41 -0.85 t0.79 -2.31 l0 -0.64 l-1.44 0 q-1.84 0 -2.86 0.56 t-1.02 1.52 z M146.174 10.52 q1.86 0 2.76 0.86 t0.92 2.4 l0 2.74 q0 2.24 0.18 3.48 l-1.12 0 q-0.12 -0.62 -0.12 -1.5 l-0.04 0 q-1 1.74 -3.22 1.74 q-1.5 0 -2.38 -0.74 t-0.9 -2 q0 -1.54 1.33 -2.32 t3.71 -0.78 l1.48 0 l0 -0.54 q0 -1.14 -0.7 -1.7 t-1.9 -0.56 q-1.6 0 -2.82 1.04 l-0.7 -0.82 q0.66 -0.64 1.63 -0.97 t1.89 -0.33 z M159.40800000000002 10.52 q2.34 0 3.24 1.74 l-1.08 0.64 q-0.68 -1.3 -2.16 -1.3 q-0.8 0 -1.39 0.43 t-0.59 1.05 t0.5 0.99 t1.74 0.59 q1.84 0.32 2.54 0.95 t0.7 1.77 q0 1.3 -0.93 2.08 t-2.43 0.78 q-2.64 -0.02 -3.7 -1.88 l1.06 -0.72 q0.34 0.7 1.11 1.11 t1.57 0.41 q0.92 0 1.52 -0.51 t0.6 -1.19 q0 -0.62 -0.49 -1.02 t-2.13 -0.72 q-1.42 -0.28 -2.14 -0.86 t-0.72 -1.68 q0 -1.18 0.9 -1.92 t2.28 -0.74 z M169.922 8.1 l1.2 0 l0 2.66 l2.64 0 l0 1.08 l-2.64 0 l0 6.04 q0 0.58 0.34 0.93 t0.94 0.35 q0.66 0 1.36 -0.32 l0.1 1.08 q-0.9 0.32 -1.58 0.32 q-1.18 0 -1.77 -0.66 t-0.59 -1.7 l0 -6.04 l-2 0 l0 -1.08 l2 0 l0 -2.66 z"></path></g><g id="SvgjsG25602" featureKey="PPkF4s-1" transform="matrix(1.479868062207432,0,0,1.479868062207432,138.8520126292544,23.778243687070272)" fill="#d7d7d7"><path d="M1.46 5.84 l3.52 12.54 l0.04 0 l3.58 -12.54 l1.68 0 l3.58 12.54 l0.04 0 l3.52 -12.54 l1.36 0 l-4.12 14.14 l-0.02 0.02 l-1.6 0 l-3.58 -12.6 l-0.04 0 l-3.58 12.6 l-1.62 0 l-4.12 -14.16 l1.36 0 z M31.554 14.6 q0 -1.26 -0.94 -2.13 t-2.28 -0.87 q-1.3 0 -2.24 0.87 t-1.1 2.13 l6.56 0 z M28.413999999999998 10.52 q1.92 0 3.12 1.24 t1.22 3.2 l0 0.72 l-7.76 0 q0.08 1.56 1.03 2.51 t2.47 0.97 q0.94 0 1.79 -0.45 t1.31 -1.19 l0.88 0.74 q-1.3 1.98 -4 1.98 q-2.12 -0.02 -3.39 -1.38 t-1.29 -3.5 q0 -2.08 1.31 -3.45 t3.31 -1.39 z M40.088 15.379999999999999 q0 1.6 1.15 2.67 t2.71 1.11 q1.62 0 2.64 -1.09 t1.02 -2.69 q0 -1.64 -1.03 -2.71 t-2.65 -1.07 q-1.58 0 -2.69 1.09 t-1.15 2.69 z M39.008 4.880000000000001 l1.2 0 l0 7.5 l0.04 0 q0.52 -0.9 1.54 -1.38 t2.16 -0.48 q2.16 0 3.51 1.4 t1.35 3.46 q0 2.14 -1.38 3.49 t-3.48 1.37 q-1.18 0 -2.21 -0.52 t-1.49 -1.34 l-0.04 0 l0 1.62 l-1.2 0 l0 -15.12 z M68.656 18.8 q3.04 0 4.8 -1.54 t1.78 -4.24 q0 -2.88 -1.75 -4.42 t-4.89 -1.56 l-2.76 0 l0 11.76 l2.82 0 z M68.936 5.84 q3.56 0 5.57 1.92 t2.05 5.26 q0 1.96 -0.89 3.55 t-2.56 2.51 t-4.09 0.92 l-4.5 0 l0 -14.16 l4.42 0 z M90.25 14.6 q0 -1.26 -0.94 -2.13 t-2.28 -0.87 q-1.3 0 -2.24 0.87 t-1.1 2.13 l6.56 0 z M87.11 10.52 q1.92 0 3.12 1.24 t1.22 3.2 l0 0.72 l-7.76 0 q0.08 1.56 1.03 2.51 t2.47 0.97 q0.94 0 1.79 -0.45 t1.31 -1.19 l0.88 0.74 q-1.3 1.98 -4 1.98 q-2.12 -0.02 -3.39 -1.38 t-1.29 -3.5 q0 -2.08 1.31 -3.45 t3.31 -1.39 z M100.48400000000001 10.52 q2.34 0 3.24 1.74 l-1.08 0.64 q-0.68 -1.3 -2.16 -1.3 q-0.8 0 -1.39 0.43 t-0.59 1.05 t0.5 0.99 t1.74 0.59 q1.84 0.32 2.54 0.95 t0.7 1.77 q0 1.3 -0.93 2.08 t-2.43 0.78 q-2.64 -0.02 -3.7 -1.88 l1.06 -0.72 q0.34 0.7 1.11 1.11 t1.57 0.41 q0.92 0 1.52 -0.51 t0.6 -1.19 q0 -0.62 -0.49 -1.02 t-2.13 -0.72 q-1.42 -0.28 -2.14 -0.86 t-0.72 -1.68 q0 -1.18 0.9 -1.92 t2.28 -0.74 z M110.518 10.76 l1.2 0 l0 9.24 l-1.2 0 l0 -9.24 z M111.11800000000001 6.199999999999999 q0.4 0 0.65 0.26 t0.25 0.64 t-0.25 0.64 t-0.65 0.26 q-0.38 0 -0.64 -0.26 t-0.26 -0.64 t0.26 -0.64 t0.64 -0.26 z M119.75200000000001 15.26 q0 1.52 1.07 2.57 t2.59 1.09 q1.5 0 2.56 -1.06 t1.1 -2.6 q0 -1.52 -1.08 -2.58 t-2.6 -1.08 q-1.52 0 -2.58 1.09 t-1.06 2.57 z M123.492 10.52 q2.36 0.02 3.5 1.8 l0.04 0 l0 -1.56 l1.2 0 l0 8.6 q0 2.7 -1.3 4.07 t-3.64 1.37 q-1.4 0 -2.62 -0.51 t-1.94 -1.43 l0.94 -0.88 q1.24 1.74 3.64 1.74 q3.72 0 3.72 -4.14 l0 -1.38 l-0.04 0 q-1.12 1.76 -3.5 1.8 q-2 0 -3.44 -1.37 t-1.5 -3.37 q0 -1.96 1.47 -3.34 t3.47 -1.4 z M139.406 10.52 q1.8 0 2.65 0.97 t0.87 3.05 l0 5.46 l-1.2 0 l0 -5.4 q0 -1.54 -0.57 -2.27 t-1.75 -0.73 q-1.46 0 -2.32 1.01 t-0.88 2.81 l0 4.58 l-1.2 0 l0 -6.74 q-0.02 -0.58 -0.1 -2.5 l1.2 0 q0.04 1.58 0.08 1.62 l0.06 0 q0.4 -0.84 1.27 -1.35 t1.89 -0.51 z M152.48000000000002 10.52 q2.34 0 3.24 1.74 l-1.08 0.64 q-0.68 -1.3 -2.16 -1.3 q-0.8 0 -1.39 0.43 t-0.59 1.05 t0.5 0.99 t1.74 0.59 q1.84 0.32 2.54 0.95 t0.7 1.77 q0 1.3 -0.93 2.08 t-2.43 0.78 q-2.64 -0.02 -3.7 -1.88 l1.06 -0.72 q0.34 0.7 1.11 1.11 t1.57 0.41 q0.92 0 1.52 -0.51 t0.6 -1.19 q0 -0.62 -0.49 -1.02 t-2.13 -0.72 q-1.42 -0.28 -2.14 -0.86 t-0.72 -1.68 q0 -1.18 0.9 -1.92 t2.28 -0.74 z"></path></g>
			</g>
		</svg>
	